<mxfile host="app.diagrams.net" modified="2024-02-09T14:54:54.177Z" agent="Mozilla/5.0 (X11; Linux x86_64) AppleWebKit/537.36 (KHTML, like Gecko) Chrome/121.0.0.0 Safari/537.36" version="23.1.2" etag="yXtcoe8LcKbIzn7Pcclx" type="github">
  <diagram name="Halaman-1" id="5Oi4jjhDBwnOvTlFCa5q">
    <mxGraphModel>
      <root>
        <mxCell id="0" />
        <mxCell id="1" parent="0" />
      </root>
    </mxGraphModel>
  </diagram>
</mxfile>
